Coordinates
version=1
nRows=12
nColumns=42
inDegrees=yes

Units are S.I. units (second, meters, Newtons, ...)
If the header above contains a line with 'inDegrees', this indicates whether rotational values are in degrees (yes) or radians (no).

endheader
time	pelvis_tilt	pelvis_list	pelvis_rotation	pelvis_tx	pelvis_ty	pelvis_tz	hip_flexion_r	hip_adduction_r	hip_rotation_r	knee_angle_r	knee_adduction_r	knee_angle_r_beta	ankle_angle_r	subtalar_angle_r	mtp_angle_r	hip_flexion_l	hip_adduction_l	hip_rotation_l	knee_angle_l	knee_adduction_l	knee_angle_l_beta	ankle_angle_l	subtalar_angle_l	mtp_angle_l	lumbar_extension	lumbar_bending	lumbar_rotation	arm_flex_r	arm_add_r	arm_rot_r	elbow_flex_r	pro_sup_r	wrist_flex_r	wrist_dev_r	arm_flex_l	arm_add_l	arm_rot_l	elbow_flex_l	pro_sup_l	wrist_flex_l	wrist_dev_l
      2.32000000	     13.81021373	      1.82230654	      2.51985487	     -0.50949586	      0.91268439	     -0.00652435	      7.61298626	    -10.02110312	    -28.39415413	     22.18417421	      3.16747971	      0.38718688	      7.86843783	     35.91369713	     -7.51044734	    -25.04556665	      4.35813573	      0.12254202	     21.09588248	     -7.11285397	      0.36819261	     20.11115553	     11.35076986	     -7.51044734	    -33.03972333	     -0.00607233	     -5.93238861	    -15.21380536	    -11.94050819	      3.23349885	     36.96486291	     90.00000001	      0.00000000	      0.00000000	     28.32049464	    -14.66237739	    -20.66781771	     48.07128083	     90.00000001	      0.00000000	      0.00000000
      2.33000000	     14.17533242	      1.52498184	      2.42926418	     -0.49948233	      0.91283951	     -0.00474979	      6.92411583	     -9.46367044	    -27.65974563	     22.83892765	      2.94827748	      0.39861449	      8.13332277	     35.00190018	     -7.51026449	    -25.71570433	      3.82312933	      0.04671278	     21.92116949	     -6.89052390	      0.38259658	     19.34817393	     10.82580570	     -7.51026449	    -33.15788772	      0.37220087	     -5.77414629	    -14.37236635	    -11.90157064	      2.91219549	     36.16620710	     90.00000001	      0.00000000	      0.00000000	     27.25916744	    -14.88984543	    -20.77686790	     49.62979622	     90.00000001	      0.00000000	      0.00000000
      2.34000000	     14.56886921	      1.31099221	      2.26387833	     -0.48962033	      0.91320031	     -0.00288916	      6.23003477	     -9.02852030	    -26.87394494	     23.55424046	      2.84541209	      0.41109905	      8.19253308	     34.51749577	     -7.51009327	    -26.19289955	      3.38354548	     -0.18278238	     23.13222482	     -6.63970638	      0.40373349	     18.39895089	     10.41444487	     -7.51009327	    -33.33528422	      0.63292710	     -5.52846288	    -13.55182614	    -11.89098157	      2.70636533	     35.55500454	     90.00000001	      0.00000000	      0.00000000	     26.36947275	    -15.03755796	    -20.93850195	     50.74927803	     90.00000001	      0.00000000	      0.00000000
      2.35000000	     14.97923947	      1.11331078	      2.04390008	     -0.47969490	      0.91370412	     -0.00084982	      5.51244045	     -8.57973442	    -26.14845248	     24.22239446	      2.70348582	      0.42276054	      8.25833725	     34.33168446	     -7.50993876	    -26.51245464	      2.98686296	     -0.51171641	     24.67951413	     -6.43389658	      0.43073878	     17.26078840	     10.08307426	     -7.50993876	    -33.52594445	      0.83664080	     -5.26128704	    -12.72296754	    -11.89032850	      2.56004199	     34.99329337	     90.00000001	      0.00000000	      0.00000000	     25.44671732	    -15.19528824	    -21.14113873	     51.77741096	     90.00000001	      0.00000000	      0.00000000
      2.36000000	     15.41962108	      0.89758910	      1.78127942	     -0.46981430	      0.91440176	      0.00139685	      4.74116590	     -8.06997694	    -25.47826552	     24.81080866	      2.52427688	      0.43303030	      8.39114486	     34.32740287	     -7.50977884	    -26.61457262	      2.56021073	     -1.04371140	     26.66704677	     -6.24243205	      0.46542777	     15.79354538	      9.70445461	     -7.50977884	    -33.76916880	      1.00823720	     -4.98478864	    -11.79084819	    -11.87248218	      2.44781086	     34.41630874	     90.00000001	      0.00000000	      0.00000000	     24.42320220	    -15.33697552	    -21.36750063	     52.89625618	     90.00000001	      0.00000000	      0.00000000
      2.37000000	     15.89917545	      0.67599774	      1.50188222	     -0.45993910	      0.91528359	      0.00374491	      3.86947580	     -7.54166828	    -24.88424897	     25.28849818	      2.35332292	      0.44136756	      8.59388465	     34.48962008	     -7.50963396	    -26.52857885	      2.11011851	     -1.66006054	     29.04881975	     -6.06105611	      0.50699755	     13.96165696	      9.29037013	     -7.50963396	    -34.06532507	      1.15599446	     -4.70474172	    -10.81398226	    -11.85849868	      2.38041330	     33.91049767	     90.00000001	      0.00000000	      0.00000000	     23.34817774	    -15.45658094	    -21.61084223	     53.99429470	     90.00000001	      0.00000000	      0.00000000
      2.38000000	     16.39261823	      0.42424764	      1.21512273	     -0.45009699	      0.91627939	      0.00620630	      2.93196385	     -6.95521883	    -24.32197125	     25.64604534	      2.16893513	      0.44760793	      8.86413429	     34.73243705	     -7.50949532	    -26.22150331	      1.62275887	     -2.28819652	     31.84318310	     -5.92754012	      0.55576839	     11.82152744	      8.76141073	     -7.50949532	    -34.38275557	      1.30256249	     -4.42887435	     -9.79957526	    -11.85304393	      2.35567982	     33.47216018	     90.00000001	      0.00000000	      0.00000000	     22.22144639	    -15.55513142	    -21.86867533	     55.07183543	     90.00000001	      0.00000000	      0.00000000
      2.39000000	     16.92200390	      0.18834162	      0.92436245	     -0.44028555	      0.91741688	      0.00879715	      1.86670008	     -6.41718900	    -23.84244708	     25.88614822	      2.08154334	      0.45179852	      9.20310973	     35.00428890	     -7.50938112	    -25.75046706	      1.10969251	     -2.79117138	     34.95607921	     -5.71332578	      0.61009868	      9.40233963	      8.18365971	     -7.50938112	    -34.75131096	      1.38317887	     -4.14285771	     -8.80118655	    -11.83654115	      2.37716809	     33.16550159	     90.00000001	      0.00000000	      0.00000000	     21.10924311	    -15.62355203	    -22.13613744	     56.06940941	     90.00000001	      0.00000000	      0.00000000
      2.40000000	     17.35572305	     -0.15355194	      0.65893687	     -0.43066359	      0.91840976	      0.01142364	      0.87804182	     -5.71276162	    -23.35823816	     25.98990995	      1.89402892	      0.45360950	      9.61966918	     35.20324362	     -7.50924474	    -24.91701860	      0.50256664	     -3.27515366	     38.48291110	     -5.61049927	      0.67165350	      6.82629062	      7.14377394	     -7.50924474	    -35.04299864	      1.56429987	     -3.86962587	     -7.72106182	    -11.82979076	      2.46450006	     32.89524271	     90.00000001	      0.00000000	      0.00000000	     19.90710049	    -15.65314324	    -22.43979501	     57.11370710	     90.00000001	      0.00000000	      0.00000000
      2.41000000	     17.72853503	     -0.52098229	      0.34294897	     -0.42122051	      0.91932512	      0.01422950	     -0.05492532	     -4.97321283	    -22.70862729	     26.06287503	      1.74992804	      0.45488298	     10.12442226	     34.92253535	     -7.50894117	    -23.83690761	     -0.15520464	     -3.53472721	     42.30534635	     -5.33186908	      0.73836759	      4.40481746	      5.64636238	     -7.50894117	    -35.29447485	      1.70204114	     -3.51616484	     -6.65646411	    -11.86984129	      2.66127121	     32.71012148	     90.00000001	      0.00000000	      0.00000000	     18.75523634	    -15.61636456	    -22.79362481	     58.00482877	     90.00000001	      0.00000000	      0.00000000
      2.42000000	     18.11006139	     -0.73457922	      0.14744775	     -0.41193978	      0.92036205	      0.01668491	     -1.06668448	     -4.54071065	    -22.31322667	     26.13945122	      1.78651976	      0.45621949	     10.61524043	     34.95990301	     -7.50832297	    -22.69390751	     -0.62680642	     -2.70429397	     46.13217943	     -4.53976071	      0.80515842	      1.72805598	      2.97999457	     -7.50832297	    -35.58097273	      1.73350631	     -3.33988112	     -5.64443592	    -11.92981829	      3.03511536	     32.78245186	     90.00000001	      0.00000000	      0.00000000	     17.67513301	    -15.55489684	    -23.15281567	     58.74502091	     90.00000001	      0.00000000	      0.00000000
      2.43000000	     18.47677308	     -0.97385106	     -0.00772525	     -0.40271450	      0.92130066	      0.01912030	     -2.15752250	     -4.11481008	    -21.68967260	     26.08618486	      2.07106928	      0.45528982	     11.29183358	     34.69963182	     -7.50811162	    -21.39337590	     -1.10284770	     -2.43576296	     49.91624201	     -4.35223711	      0.87120277	     -0.29431425	      2.36722479	     -7.50811162	    -35.86477282	      1.77658370	     -3.16306839	     -4.66532137	    -11.95460076	      3.11956613	     33.03518610	     90.00000001	      0.00000000	      0.00000000	     16.57427695	    -15.50654844	    -23.41921932	     59.49955734	     90.00000001	      0.00000000	      0.00000000
